<svg width="12" height="13" viewBox="0 0 12 13" fill="none" xmlns="http://www.w3.org/2000/svg">
<path d="M6.60461 12.3194L11.8112 6.97756C12.0629 6.72198 12.0629 6.30432 11.8112 6.04601L6.60461 0.706887C6.35553 0.448575 5.94843 0.448575 5.69669 0.706887L5.10211 1.31692C4.845 1.57797 4.85034 2.00389 5.11283 2.25944L8.34015 5.414H0.642785C0.28658 5.414 0 5.70803 0 6.07349V6.95281C0 7.31828 0.28658 7.61231 0.642785 7.61231H8.34015L5.11283 10.7669C4.85303 11.0224 4.84767 11.4483 5.10211 11.7094L5.69669 12.3194C5.94576 12.5777 6.35286 12.5777 6.60461 12.3194Z" fill="#151516"/>
</svg>
